<?xml version="1.0" encoding="utf-8"?>
<!-- Generator: Adobe Illustrator 24.2.0, SVG Export Plug-In . SVG Version: 6.00 Build 0)  -->
<svg version="1.1" id="Layer_1" xmlns="http://www.w3.org/2000/svg" xmlns:xlink="http://www.w3.org/1999/xlink" x="0px" y="0px"
	 viewBox="0 0 1000 1000" style="enable-background:new 0 0 1000 1000;" xml:space="preserve">
<style type="text/css">
	.st0{fill:#D22127;}
	.st1{fill:#FFFFFF;}
</style>
<rect class="st0" width="1000" height="1000"/>
<g>
	<rect x="246.8" y="334.7" class="st1" width="23.8" height="134"/>
	<rect x="582.4" y="334.7" class="st1" width="23.8" height="134"/>
	<polygon class="st1" points="391.8,334.7 391.8,432 328.6,334.7 320.4,334.7 296.5,334.7 296.5,468.7 320.4,468.7 320.4,371.5 
		383.5,468.7 391.8,468.7 415.7,468.7 415.7,334.7 	"/>
	<path class="st1" d="M495.4,334.6h-51.1v0.2h-2.9v134h2.9v0h51.1c18.5,0,35.3-7.5,47.4-19.6c12.1-12.1,19.6-28.9,19.6-47.4
		C562.5,364.6,532.4,334.6,495.4,334.6z M525.1,437.5c-8.8,8.8-20.9,14.2-34.4,14.2h-25.5v-97.2h25.5c26.8,0,48.6,21.8,48.6,48.6
		C539.4,416.5,533.9,428.7,525.1,437.5z"/>
	<path class="st1" d="M512.4,479.6h-67.1v0.2h-3.8v179.8h3.8v0h67.1c24.3,0,46.4-10.1,62.3-26.4c16-16.3,25.8-38.8,25.8-63.6
		C600.6,519.9,561.1,479.6,512.4,479.6z M551.5,617.7c-11.6,11.8-27.5,19.1-45.2,19.1h-33.6V506.3h33.6c35.3,0,63.9,29.2,63.9,65.2
		C570.2,589.5,563,605.9,551.5,617.7z"/>
	<path class="st1" d="M694.4,334.6h-20.3l-57.8,134h25.9l11.9-31.3h60.4l12.2,31.4h26.7L694.4,334.6z M662.7,417.3l22.1-52.6
		l20.6,52.6H662.7z"/>
	<path class="st1" d="M690.2,481.3h-22.7l-77.6,178.3h26.3l17.7-44.5h86.7l17.9,44.5H766L690.2,481.3z M642.2,595.5l34.9-88.5
		l34.9,88.5H642.2z"/>
	<polygon class="st1" points="110.3,481.9 110.3,502.6 166.7,502.6 166.7,659.4 192.6,659.4 192.6,502.6 248.9,502.6 248.9,481.9 	
		"/>
	<path class="st1" d="M332.9,474.4c-52.7,0-95.3,42.8-95.3,95.5c0,52.8,42.7,95.5,95.3,95.5s95.3-42.8,95.3-95.5
		C428.2,517.1,385.5,474.4,332.9,474.4z M333.2,643.9c-38.2,0-69.2-33.1-69.2-74s31-74,69.2-74s69.2,33.1,69.2,74
		S371.4,643.9,333.2,643.9z"/>
	<polygon class="st1" points="733.6,481.3 762.1,481.3 812.7,562.5 862.3,481.3 889.7,481.3 824.3,581.4 824.3,659.6 799,659.6 
		799.3,581.1 	"/>
</g>
</svg>
